# xmcd CD database file
#
# Track frame offsets:
#	150
#	19528
#	30271
#	54403
#	68325
#	82559
#	94703
#	111096
#	128063
#	137850
#	163448
#	174664
#	201482
#	226931
#
# Disc length: 3155 seconds
#
# Revision: 2
# Processed by: cddbd v1.5.2PL0 Copyright (c) Steve Scherf et al.
# Submitted via: CDex 1.70beta2
#
DISCID=aa0c510e
DTITLE=ROZNI WYKONAWCY  - BIESIADA SENTYMENTALNA
DYEAR=2008
DGENRE=Folk
TTITLE0=Kwiatek czerwony
TTITLE1=Chachary
TTITLE2=Serce to nie sluga
TTITLE3=Zimowy wieczór
TTITLE4=Moja zona w kraju
TTITLE5=Siadla pszczólka na jabloni
TTITLE6=Ja do lasu nie pojade
TTITLE7=Wszystkie rybki
TTITLE8=Gorzalka
TTITLE9=Szla dzieweczka do laseczka
TTITLE10=I to, i owo
TTITLE11=Jesienna piosenka
TTITLE12=Mazureczek
TTITLE13=Heca, heca
EXTD=YEAR: 2008
EXTT0=
EXTT1=
EXTT2=
EXTT3=
EXTT4=
EXTT5=
EXTT6=
EXTT7=
EXTT8=
EXTT9=
EXTT10=
EXTT11=
EXTT12=
EXTT13=
PLAYORDER=
